<svg width="156" height="54" viewBox="0 0 156 54" fill="none" xmlns="http://www.w3.org/2000/svg">
<rect width="155.497" height="54" fill="#322D2D"/>
<path d="M22.152 36.72C20.8933 36.72 19.9653 36.368 19.368 35.664C18.792 34.96 18.504 34.0533 18.504 32.944V22.384H13V20.208H17.096C17.6507 20.208 18.0347 20.1013 18.248 19.888C18.4827 19.6533 18.6 19.2587 18.6 18.704V14.384H21.064V20.208H28.584V22.384H21.064V34.544H28.584V36.72H22.152Z" fill="#F1F1F1"/>
<path d="M33.4035 34.544H38.2355V22.384H33.4035V20.208H40.7955V24.368H40.9555C41.2968 23.0667 41.9368 22.0533 42.8755 21.328C43.8355 20.5813 45.0515 20.208 46.5235 20.208H48.8275V22.768H45.7235C44.2515 22.768 43.0568 23.1947 42.1395 24.048C41.2435 24.9013 40.7955 26.0213 40.7955 27.408V34.544H47.1955V36.72H33.4035V34.544Z" fill="#F1F1F1"/>
<path d="M59.727 37.104C58.575 37.104 57.5297 36.9013 56.591 36.496C55.6737 36.0907 54.8843 35.5147 54.223 34.768C53.583 34 53.0923 33.0933 52.751 32.048C52.4097 30.9813 52.239 29.7867 52.239 28.464C52.239 27.1627 52.4097 25.9787 52.751 24.912C53.0923 23.8453 53.583 22.9387 54.223 22.192C54.8843 21.424 55.6737 20.8373 56.591 20.432C57.5297 20.0267 58.575 19.824 59.727 19.824C60.879 19.824 61.9137 20.0267 62.831 20.432C63.7697 20.8373 64.559 21.424 65.199 22.192C65.8603 22.9387 66.3617 23.8453 66.703 24.912C67.0443 25.9787 67.215 27.1627 67.215 28.464C67.215 29.7867 67.0443 30.9813 66.703 32.048C66.3617 33.0933 65.8603 34 65.199 34.768C64.559 35.5147 63.7697 36.0907 62.831 36.496C61.9137 36.9013 60.879 37.104 59.727 37.104ZM59.727 34.896C61.1563 34.896 62.3083 34.4693 63.183 33.616C64.0577 32.7627 64.495 31.44 64.495 29.648V27.28C64.495 25.488 64.0577 24.1653 63.183 23.312C62.3083 22.4587 61.1563 22.032 59.727 22.032C58.2977 22.032 57.1457 22.4587 56.271 23.312C55.3963 24.1653 54.959 25.488 54.959 27.28V29.648C54.959 31.44 55.3963 32.7627 56.271 33.616C57.1457 34.4693 58.2977 34.896 59.727 34.896Z" fill="#F1F1F1"/>
<path d="M77.2825 36.72L71.3625 20.208H73.9545L78.8825 34.576H79.0105L83.9385 20.208H86.4665L80.5465 36.72H77.2825Z" fill="#F1F1F1"/>
<path d="M98.39 37.104C97.1953 37.104 96.118 36.9013 95.158 36.496C94.2193 36.0907 93.4087 35.5147 92.726 34.768C92.0647 34 91.5527 33.0933 91.19 32.048C90.8273 30.9813 90.646 29.7973 90.646 28.496C90.646 27.1733 90.8273 25.9787 91.19 24.912C91.574 23.8453 92.0967 22.9387 92.758 22.192C93.4193 21.424 94.2087 20.8373 95.126 20.432C96.0647 20.0267 97.0993 19.824 98.23 19.824C99.3393 19.824 100.342 20.0267 101.238 20.432C102.155 20.8373 102.934 21.4027 103.574 22.128C104.214 22.832 104.705 23.6747 105.046 24.656C105.387 25.6373 105.558 26.7147 105.558 27.888V29.104H93.334V29.872C93.334 30.5973 93.4513 31.2693 93.686 31.888C93.9207 32.5067 94.2513 33.04 94.678 33.488C95.126 33.936 95.6593 34.288 96.278 34.544C96.918 34.7787 97.622 34.896 98.39 34.896C99.4993 34.896 100.459 34.64 101.27 34.128C102.081 33.616 102.699 32.912 103.126 32.016L105.014 33.296C104.523 34.4053 103.702 35.3227 102.55 36.048C101.419 36.752 100.033 37.104 98.39 37.104ZM98.23 21.936C97.526 21.936 96.8753 22.064 96.278 22.32C95.6807 22.576 95.158 22.928 94.71 23.376C94.2833 23.824 93.942 24.3573 93.686 24.976C93.4513 25.5733 93.334 26.2347 93.334 26.96V27.184H102.806V26.832C102.806 26.1067 102.689 25.4453 102.454 24.848C102.241 24.2507 101.931 23.7387 101.526 23.312C101.142 22.864 100.662 22.5227 100.086 22.288C99.5313 22.0533 98.9127 21.936 98.23 21.936Z" fill="#F1F1F1"/>
<path d="M123.402 41.968H119.658C118.399 41.968 117.471 41.616 116.873 40.912C116.297 40.208 116.009 39.3013 116.009 38.192V37.008C114.879 36.8587 113.897 36.496 113.065 35.92C112.255 35.3227 111.583 34.544 111.049 33.584C110.516 32.6027 110.122 31.44 109.866 30.096C109.61 28.7307 109.481 27.216 109.481 25.552C109.481 23.7387 109.631 22.1173 109.929 20.688C110.228 19.2373 110.698 18.0213 111.338 17.04C111.978 16.0587 112.788 15.312 113.77 14.8C114.751 14.2667 115.924 14 117.289 14C118.655 14 119.828 14.2667 120.81 14.8C121.791 15.312 122.602 16.0587 123.242 17.04C123.882 18.0213 124.351 19.2373 124.649 20.688C124.948 22.1173 125.098 23.7387 125.098 25.552C125.098 28.9013 124.575 31.5787 123.53 33.584C122.484 35.568 120.831 36.7093 118.57 37.008V39.792H123.402V41.968ZM117.289 34.768C118.185 34.768 118.943 34.5973 119.562 34.256C120.18 33.8933 120.692 33.392 121.098 32.752C121.503 32.112 121.791 31.344 121.962 30.448C122.154 29.5307 122.25 28.5067 122.25 27.376V23.728C122.25 22.6187 122.154 21.6053 121.962 20.688C121.791 19.7707 121.503 18.992 121.098 18.352C120.692 17.712 120.18 17.2213 119.562 16.88C118.943 16.5173 118.185 16.336 117.289 16.336C116.393 16.336 115.636 16.5173 115.018 16.88C114.399 17.2213 113.887 17.712 113.481 18.352C113.076 18.992 112.778 19.7707 112.586 20.688C112.415 21.6053 112.329 22.6187 112.329 23.728V27.376C112.329 28.5067 112.415 29.5307 112.586 30.448C112.778 31.344 113.076 32.112 113.481 32.752C113.887 33.392 114.399 33.8933 115.018 34.256C115.636 34.5973 116.393 34.768 117.289 34.768Z" fill="#F1F1F1"/>
<path d="M130.717 36.72V14.384H133.405V34.384H143.997V36.72H130.717Z" fill="#F1F1F1"/>
<circle cx="59.8667" cy="25.8667" r="1.86667" fill="#F1F1F1"/>
<path d="M59.8667 24L61.4833 32H58.2501L59.8667 24Z" fill="#F1F1F1"/>
</svg>
